<?xml version="1.0" encoding="UTF-8"?>
<svg version="1.1" xmlns="http://www.w3.org/2000/svg" width="100" height="100" viewBox="0 0 512 512" preserveAspectRatuon="xMidYMid meet">
	<g transform="translate(256 256) scale(0.7) translate(-256 -256)"> 
	<path d="M0 0 C168.96 0 337.92 0 512 0 C512 168.96 512 337.92 512 512 C343.04 512 174.08 512 0 512 C0 343.04 0 174.08 0 0 Z " fill="#FEDF00" transform="translate(0,0)"/>
	<path d="M0 0 C0.969375 0.38414063 1.93875 0.76828125 2.9375 1.1640625 C3.618125 1.43992187 4.29875 1.71578125 5 2 C5.96507526 7.11229058 5.84513757 10.93230456 4.75 16 C-2.79884563 55.69217486 -2.72539427 98.22082286 3.54248047 138.06787109 C4.10989811 141.70430969 4.56763278 145.34535915 5 149 C5.09498779 148.07703125 5.18997559 147.1540625 5.2878418 146.203125 C8.66323954 113.7672554 12.83293487 81.63043324 21 50 C21.30808594 48.80584473 21.61617187 47.61168945 21.93359375 46.38134766 C22.83691002 43.00562478 23.80704625 39.65905995 24.8125 36.3125 C25.08296143 35.32056641 25.35342285 34.32863281 25.63208008 33.30664062 C26.88676063 29.41040015 27.77373081 26.8000835 31.27880859 24.51318359 C42.67958593 19.72532672 59.04338049 18.63157527 70.7734375 22.96484375 C78.32745617 26.4767998 86.24734745 30.93927075 91 38 C93.00753197 44.58207202 90.78284702 49.05843292 88.1875 55.0625 C64.48677914 112.81095089 51.66679929 176.27685993 65.66455078 238.04321289 C66 240 66 240 66 244 C77.2200586 242.83024921 84.04951432 236.71370081 92.3125 229.625 C108.5819613 215.67599598 125.26976101 205.73918182 147.125 205.5 C148.07503906 205.45875 149.02507812 205.4175 150.00390625 205.375 C154.89139205 205.32076992 158.12009963 205.55296646 161.95703125 208.74609375 C175.37997567 222.25278203 182.34858757 241.52124971 182.3125 260.375 C182.24815022 267.50369955 182.24815022 267.50369955 181 270 C178.90893555 270.57495117 178.90893555 270.57495117 176.13671875 271.04296875 C174.60374146 271.31705566 174.60374146 271.31705566 173.03979492 271.59667969 C171.9335376 271.79165039 170.82728027 271.98662109 169.6875 272.1875 C138.32793167 278.1208133 110.85496328 291.20460015 87.48095703 312.91064453 C83.37670635 316.70479038 79.11574094 320.26438334 74.7578125 323.765625 C71.91901545 326.06561354 69.15105821 328.43734393 66.375 330.8125 C54.41623775 340.77555678 41.4691444 349.23612637 28 357 C31.95563504 361.13161107 36.20554245 364.70268927 40.6875 368.25 C41.36361328 368.79140625 42.03972656 369.3328125 42.73632812 369.890625 C46.19567153 372.70967902 46.19567153 372.70967902 50 375 C48.69404215 377.82462122 47.25372808 380.07144311 45.21484375 382.41796875 C44.68439453 383.03220703 44.15394531 383.64644531 43.60742188 384.27929688 C43.05634766 384.90900391 42.50527344 385.53871094 41.9375 386.1875 C41.10508789 387.14946289 41.10508789 387.14946289 40.25585938 388.13085938 C36.25979663 392.74020337 36.25979663 392.74020337 35 394 C35.57967529 394.21615967 36.15935059 394.43231934 36.7565918 394.6550293 C39.40571129 395.65192434 42.04643898 396.66945779 44.6875 397.6875 C46.05551758 398.19700195 46.05551758 398.19700195 47.45117188 398.71679688 C52.7342972 400.77241291 56.35526979 402.61865064 60 407 C43.28855781 416.28413455 24.91460918 413.27785331 7 409 C5.32118785 408.36453797 3.65040269 407.70596968 2 407 C8.74569116 398.83416333 16.18818333 391.47989314 24.23828125 384.60546875 C26.79288405 382.27743826 28.87568639 379.72177681 31 377 C30.16726563 376.78601563 29.33453125 376.57203125 28.4765625 376.3515625 C25.50072707 375.19466468 23.94543633 374.31026214 21.5234375 372.3984375 C7.48545344 361.81838382 -9.09376416 361.19129198 -26.06347656 363.24658203 C-34.13676111 364.54916521 -39.36251691 369.23893209 -44.49755859 375.29785156 C-46.86898686 377.98449406 -49.57156283 380.08257412 -52.375 382.3125 C-53.65503906 383.38951172 -53.65503906 383.38951172 -54.9609375 384.48828125 C-57 386 -57 386 -59 386 C-58.55720703 386.96599121 -58.11441406 387.93198242 -57.65820312 388.92724609 C-53.07476614 398.92896708 -48.50112433 408.93512444 -43.93701172 418.94567871 C-43.11121431 420.75617176 -42.28421612 422.566117 -41.45703125 424.37597656 C-40.29859447 426.91462293 -39.14724321 429.45628108 -38 432 C-37.68095703 432.69657715 -37.36191406 433.3931543 -37.03320312 434.11083984 C-35.76639829 436.9406712 -35 438.85820034 -35 442 C-40.32164447 442.22836706 -44.88135123 441.48810738 -49.9375 439.9375 C-51.04230713 439.60359253 -51.04230713 439.60359253 -52.16943359 439.26293945 C-60.06364783 436.79189032 -67.55805174 433.59388028 -75 430 C-75.97912354 429.52989502 -75.97912354 429.52989502 -76.97802734 429.05029297 C-98.56328413 418.53302765 -98.56328413 418.53302765 -103 409 C-98.928994 408.94990717 -94.85811168 408.91395911 -90.78686523 408.89013672 C-89.40695056 408.88018734 -88.02705635 408.86662295 -86.6472168 408.84912109 C-84.64381548 408.82437876 -82.64024889 408.81448471 -80.63671875 408.8046875 C-79.43748779 408.79421387 -78.23825684 408.78374023 -77.00268555 408.77294922 C-71.9551063 409.05927119 -66.97414469 410.09561006 -62 411 C-65.63 401.1 -69.26 391.2 -73 381 C-66.26037736 373.13710692 -66.26037736 373.13710692 -63.60546875 370.54296875 C-63.04279297 369.98802734 -62.48011719 369.43308594 -61.90039062 368.86132812 C-61.33513672 368.30896484 -60.76988281 367.75660156 -60.1875 367.1875 C-56.11000683 363.46575072 -56.11000683 363.46575072 -53 359 C-54.19625 358.938125 -55.3925 358.87625 -56.625 358.8125 C-70.61042416 357.20977478 -85.39000589 350.3658192 -94.328125 339.359375 C-108.9818751 318.67978373 -111.42897393 287.27523 -110.921875 262.6875 C-110.89670801 260.74870342 -110.87197084 258.80990121 -110.84765625 256.87109375 C-110.80868726 253.91487629 -110.74860438 250.96624586 -110.62646484 248.01220703 C-109.83491496 237.1244878 -109.83491496 237.1244878 -113.27218628 227.13458252 C-116.4946401 223.82766079 -120.26437265 221.48310727 -124.2131958 219.13537598 C-128.71378366 216.27560022 -132.33522575 212.15043716 -136.0625 208.375 C-136.91320068 207.51672607 -137.76390137 206.65845215 -138.64038086 205.77416992 C-146.19088147 198.02777525 -152.83100741 189.87405533 -159 181 C-159.45600586 180.35627441 -159.91201172 179.71254883 -160.38183594 179.04931641 C-171.17156943 163.69350402 -184.46727856 143.41551174 -188.6875 125 C-187.55078235 120.03977752 -184.32473951 116.7444305 -181 113 C-180.18982422 112.06607422 -180.18982422 112.06607422 -179.36328125 111.11328125 C-172.1063926 103.29411551 -162.38433471 97.50656355 -152 95 C-150.00086246 94.94127093 -147.99866935 94.92705586 -146 95 C-143.05931727 100.76969396 -140.19401003 106.56786816 -137.43359375 112.42578125 C-124.78042807 139.27076971 -110.2652205 161.20733996 -89 182 C-89.97777252 180.31169182 -90.95734817 178.62442798 -91.9375 176.9375 C-92.58460938 175.82375 -93.23171875 174.71 -93.8984375 173.5625 C-95.22846084 171.29094386 -96.58880602 169.05046302 -97.9765625 166.8125 C-113.35137219 141.93640342 -125.68484474 115.52454786 -134.9375 87.8125 C-135.17133392 87.11276062 -135.40516785 86.41302124 -135.64608765 85.69207764 C-143.76244565 61.2541607 -143.76244565 61.2541607 -142 54 C-135.39618419 45.49704761 -122.89689717 38.31017422 -112.265625 36.20703125 C-95.12233147 34.64048891 -95.12233147 34.64048891 -90 38 C-89.05498621 40.43894647 -88.48884291 42.46575136 -88 45 C-87.67834069 46.41985308 -87.35398413 47.83909704 -87.02734375 49.2578125 C-86.85509277 50.03253906 -86.6828418 50.80726562 -86.50537109 51.60546875 C-78.92511527 85.2375582 -67.32053771 119.43448208 -50.2578125 149.48046875 C-49.8460376 150.20890991 -49.4342627 150.93735107 -49.01000977 151.68786621 C-48.00825575 153.45947327 -47.00435569 155.22986658 -46 157 C-46.25168945 155.86385254 -46.50337891 154.72770508 -46.76269531 153.55712891 C-56.25634291 110.5765634 -56.25634291 110.5765634 -59 89 C-59.10892578 88.15663086 -59.21785156 87.31326172 -59.33007812 86.44433594 C-61.30383186 70.85912954 -62.17511256 55.30921216 -62.13037109 39.60839844 C-62.12498574 37.36907237 -62.13037368 35.12994528 -62.13671875 32.890625 C-62.14037136 28.59244914 -62.0916236 24.29717223 -62 20 C-61.98674683 19.32183228 -61.97349365 18.64366455 -61.95983887 17.94494629 C-61.91116815 16.01723406 -61.82741947 14.0905045 -61.7421875 12.1640625 C-61.69690918 11.06787598 -61.65163086 9.97168945 -61.60498047 8.84228516 C-60.86805884 5.38012146 -59.73031566 4.18877064 -57 2 C-54.265625 0.5859375 -54.265625 0.5859375 -51.25 -0.625 C-50.26515625 -1.02976563 -49.2803125 -1.43453125 -48.265625 -1.8515625 C-32.08683531 -7.54123256 -15.77854832 -6.25831844 0 0 Z " fill="#A773AF" transform="translate(259,37)"/>
	<path d="M0 0 C0.969375 0.38414063 1.93875 0.76828125 2.9375 1.1640625 C3.618125 1.43992187 4.29875 1.71578125 5 2 C5.96507526 7.11229058 5.84513757 10.93230456 4.75 16 C-2.79884563 55.69217486 -2.72539427 98.22082286 3.54248047 138.06787109 C4.10989811 141.70430969 4.56763278 145.34535915 5 149 C5.09498779 148.07703125 5.18997559 147.1540625 5.2878418 146.203125 C8.66323954 113.7672554 12.83293487 81.63043324 21 50 C21.30808594 48.80584473 21.61617187 47.61168945 21.93359375 46.38134766 C22.83691002 43.00562478 23.80704625 39.65905995 24.8125 36.3125 C25.08296143 35.32056641 25.35342285 34.32863281 25.63208008 33.30664062 C26.88676063 29.41040015 27.77373081 26.8000835 31.27880859 24.51318359 C42.67958593 19.72532672 59.04338049 18.63157527 70.7734375 22.96484375 C78.32745617 26.4767998 86.24734745 30.93927075 91 38 C93.00753197 44.58207202 90.78284702 49.05843292 88.1875 55.0625 C64.48677914 112.81095089 51.66679929 176.27685993 65.66455078 238.04321289 C66 240 66 240 66 244 C77.2200586 242.83024921 84.04951432 236.71370081 92.3125 229.625 C108.5819613 215.67599598 125.26976101 205.73918182 147.125 205.5 C148.07503906 205.45875 149.02507812 205.4175 150.00390625 205.375 C154.89139205 205.32076992 158.12009963 205.55296646 161.95703125 208.74609375 C175.37997567 222.25278203 182.34858757 241.52124971 182.3125 260.375 C182.24815022 267.50369955 182.24815022 267.50369955 181 270 C178.90893555 270.57495117 178.90893555 270.57495117 176.13671875 271.04296875 C174.60374146 271.31705566 174.60374146 271.31705566 173.03979492 271.59667969 C171.9335376 271.79165039 170.82728027 271.98662109 169.6875 272.1875 C138.32793167 278.1208133 110.85496328 291.20460015 87.48095703 312.91064453 C83.37670635 316.70479038 79.11574094 320.26438334 74.7578125 323.765625 C71.91901545 326.06561354 69.15105821 328.43734393 66.375 330.8125 C54.41623775 340.77555678 41.4691444 349.23612637 28 357 C31.95563504 361.13161107 36.20554245 364.70268927 40.6875 368.25 C41.36361328 368.79140625 42.03972656 369.3328125 42.73632812 369.890625 C46.19567153 372.70967902 46.19567153 372.70967902 50 375 C48.69404215 377.82462122 47.25372808 380.07144311 45.21484375 382.41796875 C44.68439453 383.03220703 44.15394531 383.64644531 43.60742188 384.27929688 C43.05634766 384.90900391 42.50527344 385.53871094 41.9375 386.1875 C41.10508789 387.14946289 41.10508789 387.14946289 40.25585938 388.13085938 C36.25979663 392.74020337 36.25979663 392.74020337 35 394 C35.57967529 394.21615967 36.15935059 394.43231934 36.7565918 394.6550293 C39.40571129 395.65192434 42.04643898 396.66945779 44.6875 397.6875 C46.05551758 398.19700195 46.05551758 398.19700195 47.45117188 398.71679688 C52.7342972 400.77241291 56.35526979 402.61865064 60 407 C43.28855781 416.28413455 24.91460918 413.27785331 7 409 C5.32118785 408.36453797 3.65040269 407.70596968 2 407 C8.74569116 398.83416333 16.18818333 391.47989314 24.23828125 384.60546875 C26.79288405 382.27743826 28.87568639 379.72177681 31 377 C30.16726563 376.78601563 29.33453125 376.57203125 28.4765625 376.3515625 C25.50072707 375.19466468 23.94543633 374.31026214 21.5234375 372.3984375 C7.48545344 361.81838382 -9.09376416 361.19129198 -26.06347656 363.24658203 C-34.13676111 364.54916521 -39.36251691 369.23893209 -44.49755859 375.29785156 C-46.86898686 377.98449406 -49.57156283 380.08257412 -52.375 382.3125 C-53.65503906 383.38951172 -53.65503906 383.38951172 -54.9609375 384.48828125 C-57 386 -57 386 -59 386 C-58.55720703 386.96599121 -58.11441406 387.93198242 -57.65820312 388.92724609 C-53.07476614 398.92896708 -48.50112433 408.93512444 -43.93701172 418.94567871 C-43.11121431 420.75617176 -42.28421612 422.566117 -41.45703125 424.37597656 C-40.29859447 426.91462293 -39.14724321 429.45628108 -38 432 C-37.68095703 432.69657715 -37.36191406 433.3931543 -37.03320312 434.11083984 C-35.76639829 436.9406712 -35 438.85820034 -35 442 C-40.32164447 442.22836706 -44.88135123 441.48810738 -49.9375 439.9375 C-51.04230713 439.60359253 -51.04230713 439.60359253 -52.16943359 439.26293945 C-60.06364783 436.79189032 -67.55805174 433.59388028 -75 430 C-75.97912354 429.52989502 -75.97912354 429.52989502 -76.97802734 429.05029297 C-98.56328413 418.53302765 -98.56328413 418.53302765 -103 409 C-98.928994 408.94990717 -94.85811168 408.91395911 -90.78686523 408.89013672 C-89.40695056 408.88018734 -88.02705635 408.86662295 -86.6472168 408.84912109 C-84.64381548 408.82437876 -82.64024889 408.81448471 -80.63671875 408.8046875 C-79.43748779 408.79421387 -78.23825684 408.78374023 -77.00268555 408.77294922 C-71.9551063 409.05927119 -66.97414469 410.09561006 -62 411 C-65.63 401.1 -69.26 391.2 -73 381 C-66.26037736 373.13710692 -66.26037736 373.13710692 -63.60546875 370.54296875 C-63.04279297 369.98802734 -62.48011719 369.43308594 -61.90039062 368.86132812 C-61.33513672 368.30896484 -60.76988281 367.75660156 -60.1875 367.1875 C-56.11000683 363.46575072 -56.11000683 363.46575072 -53 359 C-54.19625 358.938125 -55.3925 358.87625 -56.625 358.8125 C-70.61042416 357.20977478 -85.39000589 350.3658192 -94.328125 339.359375 C-108.9818751 318.67978373 -111.42897393 287.27523 -110.921875 262.6875 C-110.89670801 260.74870342 -110.87197084 258.80990121 -110.84765625 256.87109375 C-110.80868726 253.91487629 -110.74860438 250.96624586 -110.62646484 248.01220703 C-109.83491496 237.1244878 -109.83491496 237.1244878 -113.27218628 227.13458252 C-116.4946401 223.82766079 -120.26437265 221.48310727 -124.2131958 219.13537598 C-128.71378366 216.27560022 -132.33522575 212.15043716 -136.0625 208.375 C-136.91320068 207.51672607 -137.76390137 206.65845215 -138.64038086 205.77416992 C-146.19088147 198.02777525 -152.83100741 189.87405533 -159 181 C-159.45600586 180.35627441 -159.91201172 179.71254883 -160.38183594 179.04931641 C-171.17156943 163.69350402 -184.46727856 143.41551174 -188.6875 125 C-187.55078235 120.03977752 -184.32473951 116.7444305 -181 113 C-180.18982422 112.06607422 -180.18982422 112.06607422 -179.36328125 111.11328125 C-172.1063926 103.29411551 -162.38433471 97.50656355 -152 95 C-150.00086246 94.94127093 -147.99866935 94.92705586 -146 95 C-143.05931727 100.76969396 -140.19401003 106.56786816 -137.43359375 112.42578125 C-124.78042807 139.27076971 -110.2652205 161.20733996 -89 182 C-89.97777252 180.31169182 -90.95734817 178.62442798 -91.9375 176.9375 C-92.58460938 175.82375 -93.23171875 174.71 -93.8984375 173.5625 C-95.22846084 171.29094386 -96.58880602 169.05046302 -97.9765625 166.8125 C-113.35137219 141.93640342 -125.68484474 115.52454786 -134.9375 87.8125 C-135.17133392 87.11276062 -135.40516785 86.41302124 -135.64608765 85.69207764 C-143.76244565 61.2541607 -143.76244565 61.2541607 -142 54 C-135.39618419 45.49704761 -122.89689717 38.31017422 -112.265625 36.20703125 C-95.12233147 34.64048891 -95.12233147 34.64048891 -90 38 C-89.05498621 40.43894647 -88.48884291 42.46575136 -88 45 C-87.67834069 46.41985308 -87.35398413 47.83909704 -87.02734375 49.2578125 C-86.85509277 50.03253906 -86.6828418 50.80726562 -86.50537109 51.60546875 C-78.92511527 85.2375582 -67.32053771 119.43448208 -50.2578125 149.48046875 C-49.8460376 150.20890991 -49.4342627 150.93735107 -49.01000977 151.68786621 C-48.00825575 153.45947327 -47.00435569 155.22986658 -46 157 C-46.25168945 155.86385254 -46.50337891 154.72770508 -46.76269531 153.55712891 C-56.25634291 110.5765634 -56.25634291 110.5765634 -59 89 C-59.10892578 88.15663086 -59.21785156 87.31326172 -59.33007812 86.44433594 C-61.30383186 70.85912954 -62.17511256 55.30921216 -62.13037109 39.60839844 C-62.12498574 37.36907237 -62.13037368 35.12994528 -62.13671875 32.890625 C-62.14037136 28.59244914 -62.0916236 24.29717223 -62 20 C-61.98674683 19.32183228 -61.97349365 18.64366455 -61.95983887 17.94494629 C-61.91116815 16.01723406 -61.82741947 14.0905045 -61.7421875 12.1640625 C-61.69690918 11.06787598 -61.65163086 9.97168945 -61.60498047 8.84228516 C-60.86805884 5.38012146 -59.73031566 4.18877064 -57 2 C-54.265625 0.5859375 -54.265625 0.5859375 -51.25 -0.625 C-50.26515625 -1.02976563 -49.2803125 -1.43453125 -48.265625 -1.8515625 C-32.08683531 -7.54123256 -15.77854832 -6.25831844 0 0 Z M-46 5 C-46.81984375 5.185625 -47.6396875 5.37125 -48.484375 5.5625 C-51.06791597 6.36871136 -52.18996769 6.9757744 -54 9 C-54.6201625 12.06578942 -54.6201625 12.06578942 -54.69140625 15.6328125 C-54.72260559 16.29542084 -54.75380493 16.95802917 -54.78594971 17.64071655 C-54.87776668 19.76029803 -54.94266284 21.87922265 -55 24 C-55.02025238 24.67119873 -55.04050476 25.34239746 -55.06137085 26.03393555 C-55.1984076 30.89774198 -55.24539799 35.75939069 -55.25 40.625 C-55.25100708 41.37812469 -55.25201416 42.13124939 -55.25305176 42.90719604 C-55.23950522 58.08429974 -54.03693176 72.95125151 -52 88 C-51.85014648 89.12229004 -51.70029297 90.24458008 -51.54589844 91.40087891 C-48.51463578 113.60117731 -43.87815328 135.51728845 -37.86328125 157.1015625 C-37.67709229 157.77638672 -37.49090332 158.45121094 -37.29907227 159.14648438 C-36.78517812 160.99823989 -36.2601805 162.84690393 -35.734375 164.6953125 C-35.01855111 167.91652002 -34.86015248 170.71358325 -35 174 C-37.94397725 175.47198862 -39.73996548 175.49101754 -43 175 C-44.92288451 172.7704761 -46.20705949 170.90572796 -47.625 168.375 C-48.25450562 167.30451416 -48.25450562 167.30451416 -48.89672852 166.21240234 C-50.28891085 163.8215082 -51.64388201 161.41150492 -53 159 C-53.97505009 157.31758642 -54.95031474 155.63529717 -55.92578125 153.953125 C-75.37610778 119.88097191 -87.77023203 81.26120199 -96 43 C-109.5663246 42.28702528 -119.19038123 44.71983202 -130 53 C-131.03125 53.78375 -132.0625 54.5675 -133.125 55.375 C-135.35408116 58.49571363 -135.0671214 59.89643218 -134.49902344 63.57324219 C-133.49589011 68.45149329 -132.04088683 73.18538987 -130.5625 77.9375 C-130.03124512 79.64570923 -130.03124512 79.64570923 -129.48925781 81.38842773 C-118.29801157 116.58552807 -101.69446168 150.25643192 -80.5847168 180.55322266 C-79.97152588 181.4560498 -79.35833496 182.35887695 -78.7265625 183.2890625 C-78.17564941 184.08006348 -77.62473633 184.87106445 -77.05712891 185.68603516 C-75.72641843 188.59884668 -75.97764665 190.00448585 -77 193 C-77.66 193.66 -78.32 194.32 -79 195 C-89.92839489 194.24056917 -101.39240556 181.1074013 -108.3046875 173.4453125 C-110.60959847 170.68105984 -112.81264237 167.85809762 -115 165 C-115.8371591 163.94915463 -116.67440168 162.89837576 -117.51171875 161.84765625 C-131.3387467 144.12227045 -141.18067902 123.56913213 -150 103 C-161.43221803 104.60018059 -169.07753551 110.90035579 -177 119 C-177.82757813 119.7425 -178.65515625 120.485 -179.5078125 121.25 C-181.22794563 123.77639112 -181.22794563 123.77639112 -180.73583984 125.98461914 C-179.97188173 128.41123177 -179.04382954 130.68001374 -178 133 C-177.66226563 133.7616748 -177.32453125 134.52334961 -176.9765625 135.30810547 C-175.8647397 137.71079917 -174.69581756 140.07552492 -173.5 142.4375 C-173.06494141 143.30004395 -172.62988281 144.16258789 -172.18164062 145.05126953 C-159.63504217 169.53145503 -140.89406373 201.25330938 -116.59790039 215.76318359 C-105.23987263 222.69966858 -105.23987263 222.69966858 -103.12698364 228.32382202 C-102.13963318 233.75075682 -102.45340228 239.13951221 -102.89056396 244.61322021 C-103.20937737 248.62399418 -103.33385347 252.63432821 -103.47158813 256.65472412 C-103.54233233 258.65562369 -103.62280258 260.65620419 -103.71322632 262.65631104 C-104.7522534 286.18572433 -101.77279182 316.04928922 -88 336 C-85.27611785 338.94473746 -82.45673038 340.98584214 -79 343 C-77.72576172 343.77730469 -77.72576172 343.77730469 -76.42578125 344.5703125 C-57.47258792 355.09105301 -35.40999951 356.16026894 -14.25 356.1875 C-13.54462097 356.18867828 -12.83924194 356.18985657 -12.11248779 356.19107056 C-7.40576498 356.19018108 -2.70530581 356.11718537 2 356 C3.17079102 355.97800537 4.34158203 355.95601074 5.54785156 355.93334961 C13.15403631 355.60349525 18.65439052 353.93823454 25.25 350.1875 C26.59324341 349.45152588 26.59324341 349.45152588 27.96362305 348.70068359 C45.71268798 338.76221525 61.69278854 325.83392274 76.64453125 312.109375 C80.09027075 309.02363814 83.69552531 306.14627255 87.30078125 303.25 C89.88136339 301.09889246 92.27083838 298.83165342 94.6875 296.5 C115.52354852 277.71500001 147.75244003 267.97723667 175 264 C176.28789658 247.1142448 169.9755596 229.29127608 159.5625 216 C155.17819607 212.08266336 150.07805837 212.18898591 144.48706055 212.39648438 C126.720588 213.61762746 113.16048649 221.39344851 100 233 C80.12318916 250.15218272 80.12318916 250.15218272 68.9375 250.125 C67.87402344 250.12757813 66.81054688 250.13015625 65.71484375 250.1328125 C63 250 63 250 61 249 C60.24526497 246.68079397 59.62327281 244.43011455 59.0625 242.0625 C58.89065186 241.35391846 58.71880371 240.64533691 58.54174805 239.9152832 C57.27625352 234.53795913 56.23215201 229.13395456 55.3125 223.6875 C55.19334229 222.98439697 55.07418457 222.28129395 54.95141602 221.55688477 C50.73224888 195.25791736 51.17509527 166.14236621 56 140 C56.20931152 138.8553125 56.41862305 137.710625 56.63427734 136.53125 C62.26756787 106.42324573 70.53700215 75.73308147 83.13671875 47.71484375 C84.13142257 44.58670277 84.11431283 43.07202756 83 40 C78.12555358 33.69660627 70.5907161 29.88095938 63 28 C56.98163894 27.28411733 51.02623462 27.52045878 45 28 C43.94425781 28.06445312 42.88851562 28.12890625 41.80078125 28.1953125 C38.89484119 28.67312028 37.30416269 29.15855851 35 31 C32.80027263 34.80463051 31.62065513 38.71035885 30.53564453 42.93261719 C30.01731615 44.93316628 29.43817155 46.90491033 28.83984375 48.8828125 C22.06308103 72.05939589 17.90816362 96.62926487 15.26757812 120.59765625 C15.01562873 122.85968367 14.7389687 125.11704039 14.453125 127.375 C12.70822724 141.52859966 11.90907678 155.77338685 11 170 C8.03 170 5.06 170 2 170 C-3.33780108 145.37008699 -7.10587176 120.52125454 -7.203125 95.2734375 C-7.20882507 94.08690582 -7.21452515 92.90037415 -7.22039795 91.67788696 C-7.22978905 89.17524082 -7.23635829 86.67258264 -7.24023438 84.16992188 C-7.24984982 80.43335933 -7.28089391 76.69736939 -7.3125 72.9609375 C-7.37866836 57.72508924 -6.42625118 42.91954998 -4.37333679 27.82394409 C-3.7817099 23.3488393 -3.29696744 18.86275092 -2.8125 14.375 C-2.65261022 12.92444977 -2.49248338 11.47392563 -2.33203125 10.0234375 C-2.22246094 9.02570312 -2.11289062 8.02796875 -2 7 C-3.89453221 6.35035977 -5.79068649 5.70544885 -7.6875 5.0625 C-8.74324219 4.70285156 -9.79898438 4.34320313 -10.88671875 3.97265625 C-22.47417926 0.35248352 -34.56898168 1.25650862 -46 5 Z " fill="#1D1D1B" transform="translate(259,37)"/>
	<path d="M0 0 C11.09340572 7.77101518 19.37529725 19.19541115 22.30859375 32.6171875 C23.7720521 49.97683135 20.75044434 63.66559754 9.99609375 77.6171875 C1.73957191 87.3287458 -10.33934666 92.58951507 -22.69140625 94.6171875 C-38.71267954 95.76966117 -51.71979233 91.80360951 -64.37890625 81.8671875 C-72.5505621 74.4838561 -80.0785481 62.7205048 -80.83007812 51.55737305 C-81.55381744 34.50870001 -79.11793126 21.20159173 -68.0703125 7.625 C-50.17298894 -11.68865852 -21.67293007 -13.94002862 0 0 Z " fill="#FDFDFD" transform="translate(259.69140625,244.3828125)"/>
	<path d="M0 0 C-0.26998252 2.45842908 -0.54098599 4.91673985 -0.8125 7.375 C-0.94289673 8.56113892 -0.94289673 8.56113892 -1.07592773 9.77124023 C-1.61551176 14.64608679 -2.17858431 19.51734767 -2.765625 24.38671875 C-2.96140137 26.02991089 -2.96140137 26.02991089 -3.16113281 27.70629883 C-3.42916878 29.9475947 -3.70197268 32.18832542 -3.97949219 34.4284668 C-4.66393289 40.16298144 -5.0759332 45.74370712 -5.0534668 51.51635742 C-5.0879105 59.79494813 -5.0879105 59.79494813 -7.82421875 63.41015625 C-10.46184243 65.41067276 -12.95785246 66.69734691 -16 68 C-17.60294922 68.74830078 -17.60294922 68.74830078 -19.23828125 69.51171875 C-28.02077658 73.27859395 -34.39247864 74.55987469 -43.375 71.125 C-46.1783635 69.9235585 -48.4452244 68.70318374 -51 67 C-54.1100158 57.66995261 -53.15765472 46.72737796 -53.13037109 36.96508789 C-53.12503246 34.70126575 -53.13033835 32.43764412 -53.13671875 30.17382812 C-53.14225189 22.96831328 -53.04444819 15.76425869 -52.69921875 8.56640625 C-52.64596436 7.3657251 -52.59270996 6.16504395 -52.5378418 4.92797852 C-52 2 -52 2 -50.43774414 0.25756836 C-48.3200144 -0.96155155 -46.38266799 -1.460528 -44 -2 C-43.11828125 -2.28875 -42.2365625 -2.5775 -41.328125 -2.875 C-28.03517508 -6.89881187 -12.58867765 -6.29433883 0 0 Z " fill="#C8ABD1" transform="translate(257,44)"/>
	<path d="M0 0 C4.65177288 3.66719519 4.65177288 3.66719519 6.234375 6.1328125 C6.2972914 12.98171152 2.99055547 19.37410562 0.484375 25.6328125 C-2.22010321 32.4363398 -4.87851366 39.1567876 -6.84667969 46.21264648 C-8.88320437 53.40172488 -8.88320437 53.40172488 -11.3828125 55.47265625 C-13.63131919 56.18639385 -15.4053389 56.2011166 -17.765625 56.1328125 C-18.77367187 56.19210938 -19.78171875 56.25140625 -20.8203125 56.3125 C-33.69229551 56.82737932 -42.80613925 52.85782468 -53.1171875 45.44140625 C-54.765625 43.1328125 -54.765625 43.1328125 -54.65625 39.5078125 C-54.38704924 38.04411792 -54.08807195 36.58570577 -53.765625 35.1328125 C-53.60513672 34.35550781 -53.44464844 33.57820313 -53.27929688 32.77734375 C-52.72821751 30.21919672 -52.1300714 27.67646062 -51.515625 25.1328125 C-51.29745117 24.22233154 -51.07927734 23.31185059 -50.85449219 22.3737793 C-46.03902105 2.6796046 -46.03902105 2.6796046 -42.765625 -3.8671875 C-29.46878433 -10.71993281 -11.86545036 -8.01085491 0 0 Z " fill="#C8ABD1" transform="translate(336.765625,71.8671875)"/>
	<path d="M0 0 C1.89492187 0.01353516 1.89492187 0.01353516 3.828125 0.02734375 C4.79234375 0.03894531 5.7565625 0.05054687 6.75 0.0625 C6.985979 1.00754395 7.22195801 1.95258789 7.46508789 2.92626953 C8.57225806 7.34887464 9.69006369 11.76874635 10.8125 16.1875 C11.01430878 16.98238831 11.21611755 17.77727661 11.42404175 18.59625244 C14.17214225 29.37830098 17.10475591 40.04301911 20.71704102 50.57470703 C23.27314712 58.1278442 23.27314712 58.1278442 22.75 62.0625 C18.59504593 68.98742345 11.10203284 72.47556654 3.55859375 74.5703125 C-1.68626838 75.48943994 -6.94759046 75.28689664 -12.25 75.0625 C-15.99980496 67.97584699 -19.01190544 60.80336362 -21.6875 53.25 C-22.07147949 52.17137695 -22.45545898 51.09275391 -22.85107422 49.98144531 C-25.36807396 42.81015226 -27.72967494 35.60375426 -29.875 28.3125 C-30.13466553 27.45035889 -30.39433105 26.58821777 -30.66186523 25.69995117 C-32.8521027 17.96938203 -32.8521027 17.96938203 -31.25 14.0625 C-23.4736751 4.5138964 -12.02627999 -0.11135444 0 0 Z " fill="#C8ABD1" transform="translate(156.25,79.9375)"/>
	<path d="M0 0 C1.67542976 0.28604898 3.34385343 0.61781233 5 1 C4.6079353 7.08680449 1.73539277 11.21611495 -1.5 16.1875 C-2.04172852 17.03103027 -2.58345703 17.87456055 -3.14160156 18.74365234 C-7.3634649 25.22589384 -11.87943445 31.19476372 -17 37 C-17.65355469 37.79664063 -18.30710937 38.59328125 -18.98046875 39.4140625 C-25.55885892 47.26611304 -34.20916069 54.75019519 -44.60546875 56.41796875 C-55.5714936 57.18573535 -64.64073621 52.09417065 -72.79614258 45.23217773 C-79.17873553 39.51959776 -85.20332453 32.71615446 -89 25 C-88.73046875 22.1171875 -88.73046875 22.1171875 -88 20 C-85.06059955 20.55113758 -82.22528146 21.21496993 -79.33984375 22.015625 C-52.31502575 28.76412573 -23.70053531 13.89822315 -1 1 C-0.67 0.67 -0.34 0.34 0 0 Z " fill="#1D1D1B" transform="translate(282,329)"/>
	<path d="M0 0 C8.61589612 4.03870131 15.13175482 10.65825864 18.6875 19.5 C21.08888173 28.95059908 20.67503612 38.98114269 15.6875 47.5 C14.6975 47.995 14.6975 47.995 13.6875 48.5 C13.49414062 47.93410156 13.30078125 47.36820312 13.1015625 46.78515625 C12.71097656 45.68494141 12.71097656 45.68494141 12.3125 44.5625 C11.92964844 43.46615234 11.92964844 43.46615234 11.5390625 42.34765625 C10.83478587 40.31317884 10.83478587 40.31317884 8.6875 39.5 C8.48125 40.2425 8.275 40.985 8.0625 41.75 C6.27065834 45.33368332 4.12638682 46.53492182 0.6875 48.5 C-5.15121821 50.4462394 -12.78481027 50.69162764 -18.6484375 48.7109375 C-20.4375 47.6875 -20.4375 47.6875 -23.3125 45.5 C-24.64525988 44.49923586 -25.97847993 43.4990837 -27.3125 42.5 C-27.64056605 48.64820073 -27.68244455 53.10808872 -24.3125 58.5 C-23.9825 59.16 -23.6525 59.82 -23.3125 60.5 C-29.71856874 59.18593462 -34.04863669 55.24286084 -38.3125 50.5 C-43.86082201 41.73811086 -45.185104 33.79436878 -44.3125 23.5 C-42.9636618 18.36506644 -41.80967146 14.49811431 -37.3125 11.5 C-36.920625 12.7375 -36.52875 13.975 -36.125 15.25 C-34.58363075 19.25613943 -33.23965004 21.45105216 -29.3125 23.5 C-24.54225084 24.16561616 -20.47276722 24.10792871 -16.3125 21.5 C-13.72413909 17.43257571 -12.61204762 14.30310204 -13.3125 9.5 C-15.80258757 4.61559747 -18.26527424 2.56477417 -23.3125 0.5 C-16.75929121 -3.53522709 -7.00136088 -2.48399931 0 0 Z " fill="#1D1D1B" transform="translate(225.3125,262.5)"/>
	<path d="M0 0 C10.7502959 9.76324278 16.66951794 28.10756452 17.62890625 42.2265625 C17.64188705 44.76106367 17.58721118 47.25109584 17.39453125 49.77734375 C9.64453125 49.90234375 9.64453125 49.90234375 7.39453125 48.77734375 C6.91137695 47.05004883 6.91137695 47.05004883 6.5703125 44.796875 C6.43230225 43.96857178 6.29429199 43.14026855 6.15209961 42.28686523 C6.00522705 41.39684814 5.85835449 40.50683105 5.70703125 39.58984375 C4.03357281 30.33908462 1.36216922 17.83108435 -6.60546875 11.77734375 C-19.11093123 11.31417847 -30.12839723 21.47635509 -39.57739258 28.57080078 C-67.61535347 49.57607286 -67.61535347 49.57607286 -81.60546875 47.77734375 C-86.94713637 45.97060323 -90.95795226 43.10876958 -94.60546875 38.77734375 C-94.60546875 38.11734375 -94.60546875 37.45734375 -94.60546875 36.77734375 C-93.85523438 36.76316406 -93.105 36.74898438 -92.33203125 36.734375 C-78.32015835 36.08142878 -70.04892042 29.21741404 -59.765625 20.3203125 C-45.45240803 8.07602308 -20.13718315 -9.44968265 0 0 Z " fill="#C8ABD1" transform="translate(416.60546875,251.22265625)"/>
	<path d="M0 0 C0.36762451 0.80107178 0.73524902 1.60214355 1.11401367 2.42749023 C2.4997012 5.44247633 3.88858103 8.45595065 5.27954102 11.46850586 C5.87715019 12.76447736 6.47353769 14.06101302 7.06860352 15.3581543 C10.18781069 22.15535009 13.31020978 28.87662841 17.17626953 35.29296875 C18 37 18 37 17.6875 39.5625 C17.130625 40.366875 16.57375 41.17125 16 42 C15.60167969 42.60457031 15.20335937 43.20914063 14.79296875 43.83203125 C9.09119379 52.04698526 1.98614333 58.69027977 -8 61 C-10.44439022 60.68703698 -11.62326369 60.44879133 -13.22924805 58.53564453 C-13.56996338 57.90770996 -13.91067871 57.27977539 -14.26171875 56.6328125 C-14.65456055 55.9207666 -15.04740234 55.2087207 -15.45214844 54.47509766 C-15.85981445 53.69956543 -16.26748047 52.9240332 -16.6875 52.125 C-17.11450195 51.33013184 -17.54150391 50.53526367 -17.98144531 49.71630859 C-19.34254251 47.15486189 -20.67493833 44.58025732 -22 42 C-22.45262207 41.12601563 -22.90524414 40.25203125 -23.37158203 39.3515625 C-24.68766336 36.78693997 -25.97456666 34.21004577 -27.25 31.625 C-27.65694092 30.82336426 -28.06388184 30.02172852 -28.4831543 29.19580078 C-28.84449463 28.44282715 -29.20583496 27.68985352 -29.578125 26.9140625 C-29.90200195 26.2535791 -30.22587891 25.5930957 -30.55957031 24.91259766 C-31 23 -31 23 -30.2043457 20.90332031 C-23.94935472 11.01807609 -12.38065671 0 0 0 Z " fill="#C8ABD1" transform="translate(109,140)"/>
	<path d="M0 0 C0.99 0.495 0.99 0.495 2 1 C0.75296895 2.89778755 -0.49776058 4.79314511 -1.75 6.6875 C-2.79414063 8.27111328 -2.79414063 8.27111328 -3.859375 9.88671875 C-4.56578125 10.91410156 -5.2721875 11.94148438 -6 13 C-6.61101562 13.89074219 -7.22203125 14.78148437 -7.8515625 15.69921875 C-10.5274888 18.56489255 -13.00107873 19.65453971 -16.625 21.125 C-17.24383057 21.37725342 -17.86266113 21.62950684 -18.50024414 21.8894043 C-28.64095906 25.94857749 -38.18652567 28.17716118 -49.125 28.1875 C-49.81464844 28.19974609 -50.50429687 28.21199219 -51.21484375 28.22460938 C-56.39303773 28.23946079 -59.98483285 27.65267093 -64.01953125 24.34375 C-64.90705078 23.43109375 -64.90705078 23.43109375 -65.8125 22.5 C-66.71935547 21.58734375 -66.71935547 21.58734375 -67.64453125 20.65625 C-69 19 -69 19 -69 17 C-67.76507813 17.04640625 -66.53015625 17.0928125 -65.2578125 17.140625 C-42.80306719 17.72595415 -22.36207504 11.87662152 -2.66015625 1.22265625 C-1.78230469 0.81917969 -0.90445313 0.41570312 0 0 Z " fill="#F9F9F9" transform="translate(273,341)"/>
	<path d="M0 0 C0.99 0.33 1.98 0.66 3 1 C3.94921875 3.06640625 3.94921875 3.06640625 4.6875 5.5625 C4.93886719 6.38878906 5.19023437 7.21507812 5.44921875 8.06640625 C5.63097656 8.70449219 5.81273437 9.34257812 6 10 C0.26017007 16.28938812 -4.91984437 20.30661479 -13 23 C-15.67771286 23.09644305 -18.32315677 23.1392892 -21 23.125 C-21.72445312 23.12886719 -22.44890625 23.13273437 -23.1953125 23.13671875 C-26.39282879 23.13081927 -28.94582607 23.01805798 -32 22 C-35.57243747 17.16670225 -37.14014148 13.79089402 -37.0625 7.8125 C-37.05347656 6.91144531 -37.04445312 6.01039063 -37.03515625 5.08203125 C-37.02355469 4.39496094 -37.01195312 3.70789063 -37 3 C-32.72159739 3 -31.17965543 5.28404432 -28 8 C-21.37795328 10.20734891 -12.71165845 10.27330466 -6.3125 7.3125 C-3.18565189 5.44442586 -1.49694727 3.36813136 0 0 Z " fill="#A673AE" transform="translate(234,302)"/>
	<path d="M0 0 C2.39073445 3.82517513 2.55966552 7.59665524 3 12 C1.25728062 9.702779 -0.39911152 7.40133271 -2 5 C-1.48275862 1.48275862 -1.48275862 1.48275862 0 0 Z " fill="#E1CF06" transform="translate(211,184)"/>
	</g>
	</svg>
